PathFileType	4	(X/Y/Z)	/Users/itak/Documents/Research/Walk-IL/dataset/trc/00584_00009.trc
DataRate	CameraRate	NumFrames	NumMarkers	Units	OrigDataRate	OrigDataStartFrame	OrigNumFrames
100.000000	100.000000	4	71	mm	100.000000	83	95
Frame#	Time	RFHD			LBHD			STRN			CLAV			RWPS			LSHO			LBAK			RFRA			RAEL			RAOL			RBHD			C7			RUPA			LTOE			RWTS			RSHO			LMT1			RBAK			LUPA			LWTS			RHIP			RKNE			LWPS			LFRA			LAEL			RTIP			T10			LHIP			LAOL			RANK			LTHI			L3			LFHD			LPSI			RPSI			RTOE			RMT5			RHEE			LHEE			RMT1			RTHI			LANK			LTIP			RHTS			RASI			LHPS			LASI			RHPS			RIFD			LKNE			LHTS			LMT5			LIFD			*53			*54			*55			*56			*57			*58			*59			*60			*61			*62			*63			*64			*65			*66			*67			*68			*69			*70			
		X1	Y1	Z1	X2	Y2	Z2	X3	Y3	Z3	X4	Y4	Z4	X5	Y5	Z5	X6	Y6	Z6	X7	Y7	Z7	X8	Y8	Z8	X9	Y9	Z9	X10	Y10	Z10	X11	Y11	Z11	X12	Y12	Z12	X13	Y13	Z13	X14	Y14	Z14	X15	Y15	Z15	X16	Y16	Z16	X17	Y17	Z17	X18	Y18	Z18	X19	Y19	Z19	X20	Y20	Z20	X21	Y21	Z21	X22	Y22	Z22	X23	Y23	Z23	X24	Y24	Z24	X25	Y25	Z25	X26	Y26	Z26	X27	Y27	Z27	X28	Y28	Z28	X29	Y29	Z29	X30	Y30	Z30	X31	Y31	Z31	X32	Y32	Z32	X33	Y33	Z33	X34	Y34	Z34	X35	Y35	Z35	X36	Y36	Z36	X37	Y37	Z37	X38	Y38	Z38	X39	Y39	Z39	X40	Y40	Z40	X41	Y41	Z41	X42	Y42	Z42	X43	Y43	Z43	X44	Y44	Z44	X45	Y45	Z45	X46	Y46	Z46	X47	Y47	Z47	X48	Y48	Z48	X49	Y49	Z49	X50	Y50	Z50	X51	Y51	Z51	X52	Y52	Z52	X53	Y53	Z53	X54	Y54	Z54	X55	Y55	Z55	X56	Y56	Z56	X57	Y57	Z57	X58	Y58	Z58	X59	Y59	Z59	X60	Y60	Z60	X61	Y61	Z61	X62	Y62	Z62	X63	Y63	Z63	X64	Y64	Z64	X65	Y65	Z65	X66	Y66	Z66	X67	Y67	Z67	X68	Y68	Z68	X69	Y69	Z69	X70	Y70	Z70	X71	Y71	Z71	

84	0.8300000000000001	1388.928466796875	1559.166259765625	1150.999633789062	1388.621459960938	1571.259399414062	946.0260620117188	1375.954833984375	1185.737915039062	1033.560302734375	1370.547241210938	1296.696411132812	1035.763061523438	1058.951049804688	901.7042236328125	1186.409790039062	1389.039306640625	1392.042358398438	848.2376708984375	1262.312866210938	1371.51904296875	838.0330810546875	959.030517578125	1062.508422851562	1123.633544921875	950.1923217773438	1117.272094726562	1113.309692382812	911.7056274414062	1106.299560546875	1058.39404296875	1275.86083984375	1565.413818359375	1068.288696289062	1241.879638671875	1412.953979492188	939.1609497070312	1110.857666015625	1344.424682617188	1115.3046875	1173.661987304688	46.27277374267578	793.0950317382812	1121.498291015625	943.8081665039062	1149.578735351562	1186.316772460938	1379.354614257812	1086.599731445312	1121.844604492188	102.3976364135742	802.00830078125	1123.458374023438	1301.946533203125	946.182373046875	1439.673583984375	1278.026977539062	770.4334716796875	1514.684326171875	1153.943237304688	985.1229858398438	1168.065551757812	852.3718872070312	1101.46044921875	1434.42431640625	531.6930541992188	1257.9287109375	1575.774536132812	1093.617553710938	1002.030395507812	1521.580444335938	1091.042724609375	828.615478515625	1487.336791992188	1096.473022460938	758.6585693359375	1500.223022460938	395.8147888183594	1274.772094726562	1177.71923828125	1145.35205078125	871.6986083984375	1371.780517578125	846.5276489257812	781.9215698242188	1412.880004882812	1025.890869140625	738.1643676757812	1544.231567382812	41.18549346923828	1239.1611328125	1458.603881835938	581.3200073242188	862.6529541015625	1168.39599609375	1017.101257324219	873.4976196289062	1482.183959960938	1566.28369140625	1040.791015625	1188.194458007812	906.7659301757812	820.353515625	1116.471069335938	896.241943359375	930.7186889648438	1734.0546875	82.79648590087891	1343.299072265625	1638.880493164062	45.04243469238281	1329.600341796875	1534.2880859375	47.66810989379883	1161.936279296875	1056.461547851562	273.5206298828125	703.9860229492188	1708.38916015625	93.81238555908203	1273.57373046875	1251.188842773438	747.5490112304688	1169.454345703125	1105.55419921875	207.5482788085938	678.0613403320312	1291.385620117188	303.2695617675781	792.1170654296875	1165.616577148438	903.063720703125	1211.819091796875	1261.678344726562	892.4638671875	1093.880859375	1583.951416015625	1115.631103515625	1058.810791015625	1405.143920898438	878.9589233398438	864.163330078125	1104.11083984375	862.3766479492188	1226.990356445312	1193.96826171875	822.6494750976562	1203.653930664062	1485.032592773438	412.3994750976562	924.0531616210938	1556.439697265625	1176.506958007812	1045.712768554688	1159.466552734375	102.5879364013672	703.3273315429688	1547.633666992188	1183.584228515625	1142.124877929688	nan	nan	nan	nan	nan	nan	nan	nan	nan	nan	nan	nan	nan	nan	nan	nan	nan	nan	nan	nan	nan	nan	nan	nan	nan	nan	nan	nan	nan	nan	nan	nan	nan	nan	nan	nan	nan	nan	nan	nan	nan	nan	nan	nan	nan	nan	nan	nan	nan	nan	nan	nan	nan	nan	
85	0.84	1419.379150390625	1557.0302734375	1171.31396484375	1418.930908203125	1568.2451171875	966.2982788085938	1406.432861328125	1182.842407226562	1053.93896484375	1401.322021484375	1293.89794921875	1056.159423828125	1099.078125	898.6026611328125	1208.900390625	1418.757934570312	1388.4287109375	868.0748291015625	1291.735961914062	1368.636840820312	859.5489501953125	994.8759765625	1056.550170898438	1146.782592773438	984.7506103515625	1110.976318359375	1136.57421875	946.0881958007812	1099.152954101562	1082.001098632812	1306.120239257812	1562.5498046875	1088.442016601562	1272.183715820312	1410.42919921875	960.6119384765625	1142.234497070312	1340.9638671875	1138.14697265625	1215.894165039062	51.84775924682617	808.5947875976562	1160.141845703125	942.0392456054688	1171.701049804688	1217.522583007812	1376.447509765625	1108.583251953125	1163.73291015625	109.2846221923828	819.4492797851562	1153.252685546875	1299.66796875	968.701904296875	1466.665283203125	1274.11083984375	788.5386352539062	1540.957885742188	1147.0888671875	999.6843872070312	1198.364868164062	849.1513061523438	1123.86767578125	1465.32568359375	524.6298828125	1274.640625	1600.972900390625	1085.535522460938	1015.646057128906	1545.602905273438	1085.397827148438	842.84033203125	1511.093994140625	1092.138916015625	773.018798828125	1528.573364257812	387.6546020507812	1287.889892578125	1206.4736328125	1142.638671875	893.7149047851562	1402.131713867188	843.91552734375	804.0545654296875	1434.8564453125	1023.374450683594	753.0822143554688	1559.3583984375	39.06674194335938	1243.331176757812	1495.6572265625	582.1687622070312	887.85498046875	1197.190063476562	1014.137817382812	895.78076171875	1512.562622070312	1563.90380859375	1061.078002929688	1217.538208007812	902.9985961914062	842.4112548828125	1145.835571289062	893.1404418945312	953.1527099609375	1753.256469726562	71.81436157226562	1348.570068359375	1654.006713867188	42.29397583007812	1334.95068359375	1550.327514648438	43.20190811157227	1166.186889648438	1097.808349609375	284.2982177734375	727.3059692382812	1726.491455078125	83.68697357177734	1278.110595703125	1281.969970703125	742.1296997070312	1191.295043945312	1147.361083984375	219.8550720214844	699.2864379882812	1333.335327148438	310.6651306152344	816.3909301757812	1205.6884765625	902.4931030273438	1233.698852539062	1291.922973632812	890.7640380859375	1115.963745117188	1610.30810546875	1107.249267578125	1072.2548828125	1435.002197265625	877.2509765625	885.8848266601562	1145.472412109375	860.4740600585938	1249.099365234375	1235.636108398438	822.1758422851562	1224.861572265625	1526.51171875	415.502685546875	951.048828125	1583.871337890625	1168.756103515625	1059.483520507812	1201.671020507812	114.1592712402344	720.6875610351562	1576.179931640625	1176.11669921875	1156.020263671875	nan	nan	nan	nan	nan	nan	nan	nan	nan	nan	nan	nan	nan	nan	nan	nan	nan	nan	nan	nan	nan	nan	nan	nan	nan	nan	nan	nan	nan	nan	nan	nan	nan	nan	nan	nan	nan	nan	nan	nan	nan	nan	nan	nan	nan	nan	nan	nan	nan	nan	nan	nan	nan	nan	
86	0.85	1450.169677734375	1554.682495117188	1191.24853515625	1449.55078125	1564.781982421875	986.1810302734375	1436.968627929688	1179.070678710938	1074.109008789062	1432.174438476562	1290.268798828125	1076.27685546875	1141.9697265625	895.1936645507812	1232.207397460938	1448.413696289062	1384.283813476562	887.4884643554688	1320.892578125	1365.01025390625	880.9784545898438	1032.268676757812	1049.167724609375	1171.294189453125	1020.501281738281	1103.119873046875	1161.227294921875	981.3436889648438	1090.103149414062	1107.344360351562	1336.730102539062	1559.412475585938	1108.22705078125	1302.253662109375	1407.35986328125	981.9573364257812	1173.775512695312	1336.191772460938	1161.277465820312	1264.805541992188	57.60186767578125	827.809326171875	1200.748168945312	939.9135131835938	1193.775634765625	1248.695678710938	1372.75244140625	1130.6953125	1211.334106445312	114.4534606933594	840.4688720703125	1182.747436523438	1296.479125976562	991.2858276367188	1493.226684570312	1269.427612304688	806.3336791992188	1567.1884765625	1138.3095703125	1013.947082519531	1227.741821289062	844.886474609375	1146.049072265625	1496.228637695312	517.6550903320312	1290.85986328125	1626.287841796875	1075.67138671875	1028.355834960938	1569.14453125	1078.728637695312	856.5797729492188	1534.146850585938	1087.169067382812	787.0894165039062	1555.912841796875	379.2346801757812	1299.681274414062	1234.975830078125	1138.990478515625	915.678955078125	1432.568969726562	840.4092407226562	826.3605346679688	1455.974365234375	1020.453674316406	767.7237548828125	1569.417846679688	37.88788604736328	1244.156616210938	1533.627563476562	583.3348388671875	913.8016357421875	1225.711547851562	1010.128662109375	917.8013916015625	1543.285034179688	1561.181884765625	1080.971435546875	1246.7119140625	898.1376953125	863.997314453125	1174.723022460938	888.9617919921875	975.0546875	1767.0673828125	61.51169204711914	1350.846557617188	1663.853637695312	40.59221267700195	1337.425048828125	1561.500610351562	38.88648223876953	1167.055419921875	1141.53271484375	290.6497497558594	753.3707275390625	1739.823364257812	73.38699340820312	1279.356811523438	1312.470825195312	736.2886962890625	1212.731323242188	1192.720581054688	228.79150390625	723.5367431640625	1377.657348632812	317.1097106933594	842.721435546875	1248.559814453125	902.2178955078125	1255.033325195312	1321.370849609375	888.2767944335938	1138.223999023438	1636.976440429688	1096.762329101562	1084.8291015625	1464.705810546875	874.7363891601562	907.8284301757812	1190.254028320312	858.789306640625	1271.610961914062	1280.686157226562	822.4533081054688	1245.842529296875	1569.521240234375	419.7520446777344	979.2587280273438	1611.41748046875	1158.843505859375	1072.828125	1249.409423828125	124.2110061645508	741.597900390625	1605.096069335938	1165.788940429688	1169.474243164062	nan	nan	nan	nan	nan	nan	nan	nan	nan	nan	nan	nan	nan	nan	nan	nan	nan	nan	nan	nan	nan	nan	nan	nan	nan	nan	nan	nan	nan	nan	nan	nan	nan	nan	nan	nan	nan	nan	nan	nan	nan	nan	nan	nan	nan	nan	nan	nan	nan	nan	nan	nan	nan	nan	
87	0.86	1480.992309570312	1552.304565429688	1210.675537109375	1480.16552734375	1561.133666992188	1005.552124023438	1467.252685546875	1174.654663085938	1093.858520507812	1462.7978515625	1286.039794921875	1095.917358398438	1186.9150390625	891.8062133789062	1255.96728515625	1477.695922851562	1379.92626953125	906.3739013671875	1349.511840820312	1360.974609375	902.1564331054688	1070.786010742188	1040.801635742188	1196.767700195312	1057.08447265625	1094.135986328125	1186.881713867188	1017.186096191406	1079.606567382812	1134.002075195312	1367.39404296875	1556.250244140625	1127.55029296875	1331.814819335938	1404.038452148438	1003.010925292969	1205.224365234375	1330.391845703125	1184.477416992188	1318.874633789062	62.95228576660156	850.7820434570312	1242.7578125	937.7971801757812	1215.660400390625	1279.549560546875	1368.54248046875	1152.735717773438	1263.356567382812	117.7117538452148	864.8770141601562	1211.685913085938	1292.689208984375	1013.701782226562	1519.146728515625	1264.367919921875	823.7325439453125	1593.1650390625	1127.89013671875	1027.8681640625	1255.874267578125	840.0008544921875	1167.728881835938	1526.826293945312	511.2346801757812	1306.524536132812	1651.488159179688	1064.296142578125	1040.085815429688	1591.995849609375	1071.408813476562	869.7950439453125	1556.285400390625	1081.944580078125	800.89111328125	1582.132202148438	371.2400817871094	1310.341186523438	1262.994140625	1134.743286132812	937.2833251953125	1462.772705078125	836.2974853515625	848.587158203125	1476.101440429688	1017.476440429688	782.0499267578125	1575.685913085938	37.76853561401367	1242.885864257812	1571.919799804688	585.0682983398438	940.0786743164062	1253.73193359375	1005.425659179688	939.2297973632812	1574.038330078125	1558.32373046875	1100.335571289062	1275.457641601562	892.546875	884.8457641601562	1202.863159179688	884.0975341796875	996.1046142578125	1776.387573242188	52.78124237060547	1351.240478515625	1669.769409179688	39.82807922363281	1337.957153320312	1568.85009765625	35.45996856689453	1165.766723632812	1187.168212890625	292.6322021484375	781.4224243164062	1749.149047851562	64.13551330566406	1278.541870117188	1342.308959960938	730.469970703125	1233.53125	1240.875366210938	234.0804138183594	750.253173828125	1423.638305664062	322.6260070800781	870.5975341796875	1293.472045898438	902.3378295898438	1275.625244140625	1349.58935546875	885.1983032226562	1160.322998046875	1663.711303710938	1084.432373046875	1096.459838867188	1493.954223632812	871.6248168945312	929.798828125	1237.578369140625	857.4703369140625	1294.130004882812	1328.305908203125	823.6658935546875	1266.493774414062	1613.298461914062	425.3250427246094	1008.167541503906	1638.856079101562	1147.015625	1085.723022460938	1301.410522460938	132.0511932373047	765.8923950195312	1634.156005859375	1152.750244140625	1182.414794921875	nan	nan	nan	nan	nan	nan	nan	nan	nan	nan	nan	nan	nan	nan	nan	nan	nan	nan	nan	nan	nan	nan	nan	nan	nan	nan	nan	nan	nan	nan	nan	nan	nan	nan	nan	nan	nan	nan	nan	nan	nan	nan	nan	nan	nan	nan	nan	nan	nan	nan	nan	nan	nan	nan	
